<svg width="493" height="54" viewBox="0 0 493 54" fill="none" xmlns="http://www.w3.org/2000/svg">
    <path d="M13.3185 53.4102H3.6666C2.67027 53.4102 1.94378 53.1818 1.48714 52.7252C1.03049 52.2685 0.802162 51.5421 0.802162 50.5457V10.1946C0.802162 9.65492 0.864433 9.19827 0.988973 8.82465C1.15503 8.45103 1.38335 8.13967 1.67395 7.89059L9.70681 1.10313C9.91438 0.937079 10.1842 0.812538 10.5163 0.729509C10.8899 0.60497 11.2843 0.542701 11.6995 0.542701H39.472C40.4683 0.542701 41.1948 0.771025 41.6515 1.22767C42.1081 1.68432 42.3364 2.41081 42.3364 3.40713V10.8173C42.3364 11.357 42.2534 11.8136 42.0874 12.1872C41.9628 12.5609 41.7552 12.8722 41.4647 13.1213L34.4904 18.9124C35.4452 18.9124 36.1509 19.1408 36.6076 19.5974C37.0642 20.0541 37.2925 20.7805 37.2925 21.7769V29.2493C37.2925 29.789 37.2095 30.2456 37.0435 30.6192C36.9189 30.9929 36.7114 31.3042 36.4208 31.5533L28.3256 38.2785C28.1596 38.4445 27.8897 38.5898 27.5161 38.7144C27.184 38.8389 26.8104 38.9012 26.3952 38.9012H24.2158V43.7583C24.2158 44.2979 24.1328 44.7546 23.9667 45.1282C23.8422 45.5018 23.6346 45.8132 23.344 46.0623L15.2489 52.7875C15.0828 52.9535 14.813 53.0988 14.4394 53.2234C14.1072 53.3479 13.7336 53.4102 13.3185 53.4102ZM21.3514 46C22.1401 46 22.7005 45.8339 23.0326 45.5018C23.4063 45.1282 23.5931 44.547 23.5931 43.7583V31.491H34.4281C35.2169 31.491 35.7773 31.325 36.1094 30.9929C36.483 30.6192 36.6698 30.0381 36.6698 29.2493V21.7769C36.6698 20.9881 36.483 20.4277 36.1094 20.0956C35.7773 19.7219 35.2169 19.5351 34.4281 19.5351H23.5931V13.059H39.472C40.2608 13.059 40.8212 12.893 41.1533 12.5609C41.5269 12.1872 41.7137 11.6061 41.7137 10.8173V3.40713C41.7137 2.61838 41.5269 2.05794 41.1533 1.72584C40.8212 1.35221 40.2608 1.1654 39.472 1.1654H11.6995C10.9107 1.1654 10.3295 1.35221 9.95589 1.72584C9.62378 2.05794 9.45773 2.61838 9.45773 3.40713V43.7583C9.45773 44.547 9.62378 45.1282 9.95589 45.5018C10.3295 45.8339 10.9107 46 11.6995 46H21.3514ZM16.2452 40.3957V6.76973H36.1094V7.39243H16.8679V25.2017H31.0655V25.8244H16.8679V40.3957H16.2452ZM80.0581 53.4102H48.3625C47.3662 53.4102 46.6397 53.1818 46.1831 52.7252C45.7264 52.2685 45.4981 51.5421 45.4981 50.5457V10.1946C45.4981 9.65492 45.5604 9.19827 45.6849 8.82465C45.851 8.45103 46.0793 8.13967 46.3699 7.89059L54.4028 1.10313C54.6103 0.937079 54.8802 0.812538 55.2123 0.729509C55.5859 0.60497 55.9803 0.542701 56.3954 0.542701H66.0473C67.0436 0.542701 67.7701 0.771025 68.2268 1.22767C68.6834 1.68432 68.9117 2.41081 68.9117 3.40713V28.7511L69.0363 28.6266L77.0691 21.8391C77.2767 21.6731 77.5465 21.5485 77.8786 21.4655C78.2523 21.341 78.6467 21.2787 79.0618 21.2787H88.091C89.0873 21.2787 89.8138 21.507 90.2704 21.9637C90.7271 22.4203 90.9554 23.1468 90.9554 24.1431V43.7583C90.9554 44.2979 90.8724 44.7546 90.7063 45.1282C90.5818 45.5018 90.3742 45.8132 90.0836 46.0623L81.9885 52.7875C81.8224 52.9535 81.5526 53.0988 81.179 53.2234C80.8469 53.3479 80.4732 53.4102 80.0581 53.4102ZM88.091 46C88.8797 46 89.4402 45.8339 89.7723 45.5018C90.1459 45.1282 90.3327 44.547 90.3327 43.7583V24.1431C90.3327 23.3544 90.1459 22.7939 89.7723 22.4618C89.4402 22.0882 88.8797 21.9014 88.091 21.9014H79.0618C78.273 21.9014 77.6918 22.0882 77.3182 22.4618C76.9861 22.7939 76.8201 23.3544 76.8201 24.1431V34.2309H68.289V3.40713C68.289 2.61838 68.1022 2.05794 67.7286 1.72584C67.3965 1.35221 66.8361 1.1654 66.0473 1.1654H56.3954C55.6066 1.1654 55.0255 1.35221 54.6518 1.72584C54.3197 2.05794 54.1537 2.61838 54.1537 3.40713V43.7583C54.1537 44.547 54.3197 45.1282 54.6518 45.5018C55.0255 45.8339 55.6066 46 56.3954 46H88.091ZM60.9411 40.3957V6.76973H61.5638V39.773H83.2339V27.5057H83.8566V40.3957H60.9411ZM109.943 27.1321V29.0625H134.228V27.1321C134.228 26.0112 134.125 24.9734 133.917 24.0186C133.751 23.0638 133.523 22.1712 133.232 21.341L128.935 11.1909C128.479 10.1116 128.001 9.21902 127.503 8.51329C127.005 7.76605 126.175 7.39243 125.012 7.39243H118.91C117.664 7.39243 116.793 7.76605 116.295 8.51329C115.796 9.21902 115.34 10.0908 114.925 11.1286L110.939 21.341C110.649 22.1712 110.4 23.0638 110.192 24.0186C110.026 24.9734 109.943 26.0112 109.943 27.1321ZM119.906 14.2422C120.072 13.8685 120.238 13.5987 120.404 13.4326C120.612 13.2666 120.84 13.1836 121.089 13.1836H122.646C122.895 13.1836 123.103 13.2666 123.269 13.4326C123.476 13.5987 123.663 13.8685 123.829 14.2422L126.756 23.7072H116.98L119.906 14.2422ZM134.228 40.3957V29.6852H109.943V40.3957H109.32V27.1321C109.32 25.9697 109.403 24.9111 109.569 23.9563C109.777 22.96 110.047 22.0052 110.379 21.0919L114.364 10.8796C114.821 9.71719 115.34 8.74162 115.921 7.95286C116.502 7.16411 117.498 6.76973 118.91 6.76973H125.012C126.382 6.76973 127.337 7.16411 127.877 7.95286C128.458 8.74162 128.998 9.73794 129.496 10.9418L133.792 21.0919C134.125 22.0052 134.374 22.96 134.54 23.9563C134.747 24.9111 134.851 25.9697 134.851 27.1321V40.3957H134.228ZM116.357 43.7583V35.0404H127.379V43.7583C127.379 44.547 127.565 45.1282 127.939 45.5018C128.354 45.8339 128.977 46 129.807 46H139.21C139.999 46 140.559 45.8339 140.891 45.5018C141.265 45.1282 141.452 44.547 141.452 43.7583V27.3189C141.452 26.0735 141.244 24.6413 140.829 23.0223C140.455 21.4032 139.853 19.5144 139.023 17.3557L133.606 3.22032C133.357 2.51459 132.962 1.99567 132.423 1.66357C131.924 1.33146 131.281 1.1654 130.492 1.1654H113.741C112.911 1.1654 112.226 1.33146 111.687 1.66357C111.188 1.99567 110.815 2.51459 110.566 3.22032L105.148 17.3557C104.318 19.5144 103.695 21.4032 103.28 23.0223C102.906 24.6413 102.72 26.0735 102.72 27.3189V43.7583C102.72 44.547 102.886 45.1282 103.218 45.5018C103.591 45.8339 104.173 46 104.961 46H114.115C114.904 46 115.464 45.8339 115.796 45.5018C116.17 45.1282 116.357 44.547 116.357 43.7583ZM108.013 52.7875C107.847 52.9535 107.577 53.0988 107.203 53.2234C106.871 53.3479 106.497 53.4102 106.082 53.4102H96.9285C95.9322 53.4102 95.2057 53.1818 94.749 52.7252C94.2924 52.2685 94.0641 51.5421 94.0641 50.5457V34.1064C94.0641 32.8195 94.2509 31.3665 94.6245 29.7475C95.0396 28.0869 95.6831 26.1358 96.5549 23.8941L101.91 9.82097C102.035 9.44735 102.18 9.136 102.346 8.88692C102.554 8.59632 102.761 8.34724 102.969 8.13967L103.031 8.0774L111.002 1.41448C111.334 1.12389 111.728 0.916321 112.185 0.791782C112.641 0.625728 113.16 0.542701 113.741 0.542701H130.492C131.447 0.542701 132.215 0.750268 132.796 1.1654C133.419 1.53902 133.876 2.14097 134.166 2.97124L139.584 17.1066C140.455 19.3483 141.078 21.2995 141.452 22.96C141.867 24.579 142.074 26.032 142.074 27.3189V43.7583C142.074 44.2979 141.991 44.7546 141.825 45.1282C141.701 45.5018 141.493 45.8132 141.203 46.0623L133.108 52.7875C132.941 52.9535 132.672 53.0988 132.298 53.2234C131.966 53.3479 131.592 53.4102 131.177 53.4102H121.774C120.736 53.4102 119.968 53.1611 119.47 52.6629C118.972 52.2063 118.723 51.5005 118.723 50.5457V42.4506H116.98V43.7583C116.98 44.2979 116.896 44.7546 116.73 45.1282C116.606 45.5018 116.398 45.8132 116.108 46.0623L108.013 52.7875ZM148.431 53.4102C147.435 53.4102 146.708 53.1818 146.251 52.7252C145.795 52.2685 145.566 51.5421 145.566 50.5457V43.2601C145.566 42.7204 145.629 42.2638 145.753 41.8902C145.919 41.5165 146.148 41.2052 146.438 40.9561L152.665 35.7254C150.465 35.0612 148.721 33.9403 147.435 32.3628C146.189 30.7438 145.566 28.4398 145.566 25.4508V18.9124C145.566 17.0443 145.878 15.3838 146.5 13.9308C147.123 12.4778 148.016 11.2532 149.178 10.2569L157.273 3.4694C158.394 2.55611 159.785 1.85038 161.445 1.35222C163.106 0.812539 164.995 0.542701 167.112 0.542701H184.548C185.544 0.542701 186.27 0.771025 186.727 1.22767C187.184 1.68432 187.412 2.41081 187.412 3.40713V10.8173C187.412 11.357 187.329 11.8136 187.163 12.1872C187.038 12.5609 186.831 12.8722 186.54 13.1213L180.936 17.7916C183.551 18.3728 185.648 19.4729 187.225 21.0919C188.844 22.6694 189.654 25.1395 189.654 28.5021V35.0404C189.654 36.9085 189.342 38.5691 188.72 40.0221C188.097 41.475 187.184 42.6997 185.98 43.696L177.947 50.4212C176.785 51.376 175.373 52.1025 173.713 52.6006C172.052 53.1403 170.184 53.4102 168.108 53.4102H148.431ZM176.141 46C180.126 46 183.261 45.0659 185.544 43.1978C187.869 41.2882 189.031 38.5691 189.031 35.0404V28.5021C189.031 25.0149 188.139 22.5241 186.353 21.0296C184.568 19.5351 182.223 18.5803 179.317 18.1652L170.039 16.9198C169.499 16.8783 169.084 16.6707 168.793 16.2971C168.503 15.9235 168.357 15.4668 168.357 14.9271C168.357 14.3875 168.503 13.9516 168.793 13.6195C169.084 13.2458 169.499 13.059 170.039 13.059H184.548C185.336 13.059 185.897 12.893 186.229 12.5609C186.603 12.1872 186.789 11.6061 186.789 10.8173V3.40713C186.789 2.61838 186.603 2.05794 186.229 1.72584C185.897 1.35221 185.336 1.1654 184.548 1.1654H167.112C163.085 1.1654 159.93 2.12021 157.647 4.02984C155.364 5.89794 154.222 8.59632 154.222 12.125V18.6634C154.222 22.1505 155.094 24.6413 156.837 26.1358C158.622 27.6303 160.968 28.5851 163.874 29.0002L173.214 30.3079C173.754 30.3494 174.148 30.5362 174.398 30.8683C174.688 31.2004 174.833 31.7194 174.833 32.4251C174.833 32.9232 174.688 33.3591 174.398 33.7328C174.148 34.0649 173.754 34.2309 173.214 34.2309H156.464C155.675 34.2309 155.094 34.4177 154.72 34.7914C154.388 35.1235 154.222 35.6839 154.222 36.4726V43.7583C154.222 44.547 154.388 45.1282 154.72 45.5018C155.094 45.8339 155.675 46 156.464 46H176.141ZM181.185 6.76973V7.39243H167.361C165.617 7.39243 164.227 7.86984 163.189 8.82465C162.151 9.77946 161.632 10.9834 161.632 12.4363V17.5425C161.632 18.9955 161.923 20.0125 162.504 20.5937C163.085 21.1749 163.853 21.5485 164.808 21.7146L177.947 24.3922C179.192 24.6413 180.209 25.181 180.998 26.0112C181.828 26.8415 182.244 28.336 182.244 30.4947V34.1064C182.244 35.933 181.621 37.4482 180.376 38.6521C179.13 39.8145 177.449 40.3957 175.332 40.3957H159.826V39.773H175.332C177.241 39.773 178.756 39.2541 179.877 38.2162C181.04 37.1369 181.621 35.7669 181.621 34.1064V30.4947C181.621 28.5436 181.268 27.2151 180.562 26.5094C179.898 25.7622 178.985 25.264 177.822 25.0149L164.683 22.3373C163.604 22.1297 162.712 21.7146 162.006 21.0919C161.342 20.4277 161.009 19.2445 161.009 17.5425V12.4363C161.009 10.7758 161.591 9.42659 162.753 8.38875C163.915 7.3094 165.451 6.76973 167.361 6.76973H181.185ZM208.771 40.3957V6.76973H209.393V23.2714H233.305V6.76973H233.928V40.3957H233.305V23.8941H209.393V40.3957H208.771ZM213.939 46C214.728 46 215.288 45.8339 215.62 45.5018C215.994 45.1282 216.181 44.547 216.181 43.7583V29.9343H226.58V43.7583C226.58 44.547 226.746 45.1282 227.078 45.5018C227.452 45.8339 228.033 46 228.822 46H238.474C239.262 46 239.823 45.8339 240.155 45.5018C240.529 45.1282 240.715 44.547 240.715 43.7583V3.40713C240.715 2.61838 240.529 2.05794 240.155 1.72584C239.823 1.35221 239.262 1.1654 238.474 1.1654H228.822C228.033 1.1654 227.452 1.35221 227.078 1.72584C226.746 2.05794 226.58 2.61838 226.58 3.40713V16.9198H216.181V3.40713C216.181 2.61838 215.994 2.05794 215.62 1.72584C215.288 1.35221 214.728 1.1654 213.939 1.1654H204.287C203.499 1.1654 202.917 1.35221 202.544 1.72584C202.212 2.05794 202.046 2.61838 202.046 3.40713V43.7583C202.046 44.547 202.212 45.1282 202.544 45.5018C202.917 45.8339 203.499 46 204.287 46H213.939ZM215.932 46.0623L207.837 52.7875C207.671 52.9535 207.401 53.0988 207.027 53.2234C206.695 53.3479 206.321 53.4102 205.906 53.4102H196.254C195.258 53.4102 194.532 53.1818 194.075 52.7252C193.618 52.2685 193.39 51.5421 193.39 50.5457V10.1946C193.39 9.65492 193.452 9.19827 193.577 8.82465C193.743 8.45103 193.971 8.13967 194.262 7.89059L202.295 1.10313C202.502 0.937079 202.772 0.812538 203.104 0.729509C203.478 0.60497 203.872 0.542701 204.287 0.542701H213.939C214.936 0.542701 215.662 0.771025 216.119 1.22767C216.575 1.68432 216.804 2.41081 216.804 3.40713V16.2971H217.924V10.1946C217.924 9.65492 217.987 9.19827 218.111 8.82465C218.277 8.45103 218.506 8.13967 218.796 7.89059L226.829 1.10313C227.037 0.937079 227.307 0.812538 227.639 0.729509C228.012 0.60497 228.407 0.542701 228.822 0.542701H238.474C239.47 0.542701 240.196 0.771025 240.653 1.22767C241.11 1.68432 241.338 2.41081 241.338 3.40713V43.7583C241.338 44.2979 241.255 44.7546 241.089 45.1282C240.964 45.5018 240.757 45.8132 240.466 46.0623L232.371 52.7875C232.205 52.9535 231.935 53.0988 231.562 53.2234C231.23 53.3479 230.856 53.4102 230.441 53.4102H220.789C219.793 53.4102 219.066 53.1818 218.609 52.7252C218.153 52.2685 217.924 51.5421 217.924 50.5457V37.3444H216.804V43.7583C216.804 44.2979 216.721 44.7546 216.555 45.1282C216.43 45.5018 216.222 45.8132 215.932 46.0623ZM277.354 53.4102H262.16C256.721 53.4102 252.695 51.9987 250.079 49.1758C247.505 46.3529 246.219 42.6997 246.219 38.2162V20.7183C246.219 18.435 246.551 16.4631 247.215 14.8026C247.879 13.1005 248.855 11.6891 250.142 10.5682L258.237 3.78075C259.524 2.7014 261.163 1.89189 263.156 1.35222C265.149 0.812539 267.494 0.542701 270.193 0.542701H285.387C286.383 0.542701 287.109 0.771025 287.566 1.22767C288.023 1.68432 288.251 2.41081 288.251 3.40713V10.9418C288.251 11.4815 288.168 11.9382 288.002 12.3118C287.877 12.6854 287.67 12.9968 287.379 13.2458L279.284 19.971C279.118 20.1371 278.848 20.2824 278.475 20.4069C278.142 20.5315 277.769 20.5937 277.354 20.5937H269.694V31.1174C269.694 31.9892 269.964 32.6119 270.504 32.9855C271.044 33.3176 271.832 33.4837 272.87 33.4837H285.387C286.383 33.4837 287.109 33.712 287.566 34.1686C288.023 34.6253 288.251 35.3518 288.251 36.3481V43.7583C288.251 44.2979 288.168 44.7546 288.002 45.1282C287.877 45.5018 287.67 45.8132 287.379 46.0623L279.284 52.7875C279.118 52.9535 278.848 53.0988 278.475 53.2234C278.142 53.3479 277.769 53.4102 277.354 53.4102ZM285.387 46C286.175 46 286.736 45.8339 287.068 45.5018C287.441 45.1282 287.628 44.547 287.628 43.7583V36.3481C287.628 35.5594 287.441 34.9989 287.068 34.6668C286.736 34.2932 286.175 34.1064 285.387 34.1064H272.87C271.583 34.1064 270.628 33.8781 270.006 33.4214C269.383 32.9232 269.072 32.1552 269.072 31.1174V16.2971C269.072 15.2592 269.383 14.4912 270.006 13.9931C270.628 13.4534 271.583 13.1836 272.87 13.1836H285.387C286.175 13.1836 286.736 13.0175 287.068 12.6854C287.441 12.3118 287.628 11.7306 287.628 10.9418V3.40713C287.628 2.61838 287.441 2.05794 287.068 1.72584C286.736 1.35221 286.175 1.1654 285.387 1.1654H270.193C265.003 1.1654 261.143 2.224 258.61 4.34119C256.12 6.41686 254.874 9.6134 254.874 13.9308V33.2969C254.874 37.6143 256.12 40.8108 258.61 42.8865C261.143 44.9622 265.003 46 270.193 46H285.387ZM281.962 39.773V40.3957H271.563C267.536 40.3957 264.858 39.773 263.53 38.5276C262.243 37.2822 261.599 35.2272 261.599 32.3628V14.9271C261.599 11.9797 262.264 9.88324 263.592 8.63784C264.92 7.39243 267.577 6.76973 271.563 6.76973H281.962V7.39243H271.563C267.909 7.39243 265.439 7.97362 264.152 9.136C262.865 10.2569 262.222 12.1872 262.222 14.9271V32.3628C262.222 35.0612 262.845 36.9708 264.09 38.0917C265.336 39.2125 267.826 39.773 271.563 39.773H281.962ZM307.152 27.1321V29.0625H331.438V27.1321C331.438 26.0112 331.334 24.9734 331.126 24.0186C330.96 23.0638 330.732 22.1712 330.442 21.341L326.145 11.1909C325.688 10.1116 325.211 9.21902 324.713 8.51329C324.214 7.76605 323.384 7.39243 322.222 7.39243H316.119C314.874 7.39243 314.002 7.76605 313.504 8.51329C313.006 9.21902 312.549 10.0908 312.134 11.1286L308.149 21.341C307.858 22.1712 307.609 23.0638 307.402 24.0186C307.235 24.9734 307.152 26.0112 307.152 27.1321ZM317.116 14.2422C317.282 13.8685 317.448 13.5987 317.614 13.4326C317.821 13.2666 318.05 13.1836 318.299 13.1836H319.856C320.105 13.1836 320.312 13.2666 320.478 13.4326C320.686 13.5987 320.873 13.8685 321.039 14.2422L323.965 23.7072H314.189L317.116 14.2422ZM331.438 40.3957V29.6852H307.152V40.3957H306.53V27.1321C306.53 25.9697 306.613 24.9111 306.779 23.9563C306.986 22.96 307.256 22.0052 307.588 21.0919L311.574 10.8796C312.03 9.71719 312.549 8.74162 313.13 7.95286C313.712 7.16411 314.708 6.76973 316.119 6.76973H322.222C323.592 6.76973 324.547 7.16411 325.086 7.95286C325.667 8.74162 326.207 9.73794 326.705 10.9418L331.002 21.0919C331.334 22.0052 331.583 22.96 331.749 23.9563C331.957 24.9111 332.061 25.9697 332.061 27.1321V40.3957H331.438ZM313.566 43.7583V35.0404H324.588V43.7583C324.588 44.547 324.775 45.1282 325.149 45.5018C325.564 45.8339 326.186 46 327.017 46H336.419C337.208 46 337.769 45.8339 338.101 45.5018C338.474 45.1282 338.661 44.547 338.661 43.7583V27.3189C338.661 26.0735 338.454 24.6413 338.038 23.0223C337.665 21.4032 337.063 19.5144 336.233 17.3557L330.815 3.22032C330.566 2.51459 330.172 1.99567 329.632 1.66357C329.134 1.33146 328.49 1.1654 327.702 1.1654H310.951C310.121 1.1654 309.436 1.33146 308.896 1.66357C308.398 1.99567 308.024 2.51459 307.775 3.22032L302.358 17.3557C301.527 19.5144 300.905 21.4032 300.49 23.0223C300.116 24.6413 299.929 26.0735 299.929 27.3189V43.7583C299.929 44.547 300.095 45.1282 300.427 45.5018C300.801 45.8339 301.382 46 302.171 46H311.325C312.113 46 312.674 45.8339 313.006 45.5018C313.379 45.1282 313.566 44.547 313.566 43.7583ZM305.222 52.7875C305.056 52.9535 304.786 53.0988 304.413 53.2234C304.08 53.3479 303.707 53.4102 303.292 53.4102H294.138C293.142 53.4102 292.415 53.1818 291.958 52.7252C291.502 52.2685 291.274 51.5421 291.274 50.5457V34.1064C291.274 32.8195 291.46 31.3665 291.834 29.7475C292.249 28.0869 292.893 26.1358 293.764 23.8941L299.12 9.82097C299.244 9.44735 299.389 9.136 299.555 8.88692C299.763 8.59632 299.971 8.34724 300.178 8.13967L300.24 8.0774L308.211 1.41448C308.543 1.12389 308.938 0.916321 309.394 0.791782C309.851 0.625728 310.37 0.542701 310.951 0.542701H327.702C328.656 0.542701 329.424 0.750268 330.006 1.1654C330.628 1.53902 331.085 2.14097 331.376 2.97124L336.793 17.1066C337.665 19.3483 338.288 21.2995 338.661 22.96C339.076 24.579 339.284 26.032 339.284 27.3189V43.7583C339.284 44.2979 339.201 44.7546 339.035 45.1282C338.91 45.5018 338.703 45.8132 338.412 46.0623L330.317 52.7875C330.151 52.9535 329.881 53.0988 329.507 53.2234C329.175 53.3479 328.802 53.4102 328.387 53.4102H318.984C317.946 53.4102 317.178 53.1611 316.68 52.6629C316.182 52.2063 315.933 51.5005 315.933 50.5457V42.4506H314.189V43.7583C314.189 44.2979 314.106 44.7546 313.94 45.1282C313.815 45.5018 313.608 45.8132 313.317 46.0623L305.222 52.7875ZM373.475 7.39243H359.9V25.3885H373.475C376.049 25.3885 377.772 24.7658 378.644 23.5204C379.515 22.275 379.951 20.5107 379.951 18.2275V13.8685C379.951 11.9589 379.412 10.4022 378.332 9.19827C377.294 7.99438 375.675 7.39243 373.475 7.39243ZM366.625 12.3741H371.296C372.375 12.3741 373.102 12.6646 373.475 13.2458C373.849 13.7855 374.036 14.4705 374.036 15.3008V17.4179C374.036 18.2482 373.849 18.9539 373.475 19.5351C373.102 20.0748 372.375 20.3446 371.296 20.3446H366.625V12.3741ZM359.9 40.3957H359.278V6.76973H373.475C375.883 6.76973 377.668 7.4547 378.83 8.82465C379.993 10.1531 380.574 11.8344 380.574 13.8685V18.1652C380.574 20.0748 380.325 21.6523 379.827 22.8977C379.329 24.1016 378.332 24.9319 376.838 25.3885H377.523C380.055 25.3885 381.944 25.9697 383.189 27.1321C384.435 28.253 385.057 29.8928 385.057 32.0515V40.3957H384.435V32.0515C384.435 30.0173 383.874 28.5021 382.753 27.5057C381.633 26.4679 379.889 25.949 377.523 25.949H359.9V40.3957ZM364.384 46C365.172 46 365.733 45.8339 366.065 45.5018C366.439 45.1282 366.625 44.547 366.625 43.7583V31.5533H375.343C376.215 31.5533 376.817 31.7816 377.149 32.2383C377.523 32.6534 377.71 33.3176 377.71 34.2309V43.7583C377.71 44.547 377.876 45.1282 378.208 45.5018C378.581 45.8339 379.162 46 379.951 46H389.603C390.392 46 390.952 45.8339 391.284 45.5018C391.658 45.1282 391.845 44.547 391.845 43.7583V30.557C391.845 27.9416 391.139 25.8452 389.728 24.2677C388.358 22.6902 386.552 21.7769 384.31 21.5278C385.597 20.9881 386.49 20.1163 386.988 18.9124C387.527 17.667 387.797 16.1725 387.797 14.429V11.5645C387.797 8.49254 386.905 6.00173 385.12 4.09211C383.376 2.14097 380.18 1.1654 375.53 1.1654H354.794C354.005 1.1654 353.424 1.35221 353.05 1.72584C352.718 2.05794 352.552 2.61838 352.552 3.40713V43.7583C352.552 44.547 352.718 45.1282 353.05 45.5018C353.424 45.8339 354.005 46 354.794 46H364.384ZM366.376 46.0623L358.281 52.7875C358.115 52.9535 357.845 53.0988 357.472 53.2234C357.14 53.3479 356.766 53.4102 356.351 53.4102H346.761C345.765 53.4102 345.038 53.1818 344.582 52.7252C344.125 52.2685 343.897 51.5421 343.897 50.5457V10.1946C343.897 9.65492 343.959 9.19827 344.084 8.82465C344.25 8.45103 344.478 8.13967 344.769 7.89059L352.801 1.10313C353.009 0.937079 353.279 0.812538 353.611 0.729509C353.985 0.60497 354.379 0.542701 354.794 0.542701H375.53C380.47 0.542701 383.854 1.58054 385.68 3.65622C387.507 5.69038 388.42 8.32648 388.42 11.5645V14.429C388.42 15.965 388.233 17.3142 387.86 18.4765C387.486 19.5974 386.884 20.5107 386.054 21.2164H385.991C387.943 21.7561 389.499 22.8355 390.662 24.4545C391.866 26.0735 392.468 28.1077 392.468 30.557V43.7583C392.468 44.2979 392.385 44.7546 392.218 45.1282C392.094 45.5018 391.886 45.8132 391.596 46.0623L383.501 52.7875C383.335 52.9535 383.065 53.0988 382.691 53.2234C382.359 53.3479 381.985 53.4102 381.57 53.4102H371.918C370.922 53.4102 370.196 53.1818 369.739 52.7252C369.282 52.2685 369.054 51.5421 369.054 50.5457V41.0184C369.054 40.3542 368.929 39.856 368.68 39.5239C368.431 39.1503 367.975 38.9635 367.31 38.9635H367.248V43.7583C367.248 44.2979 367.165 44.7546 366.999 45.1282C366.874 45.5018 366.667 45.8132 366.376 46.0623ZM432.182 50.1098C430.895 51.1892 429.255 51.9987 427.263 52.5384C425.27 53.1196 422.924 53.4102 420.226 53.4102H399.241C398.245 53.4102 397.518 53.1818 397.061 52.7252C396.605 52.2685 396.377 51.5421 396.377 50.5457V10.1946C396.377 9.65492 396.439 9.19827 396.563 8.82465C396.729 8.45103 396.958 8.13967 397.248 7.89059L405.281 1.10313C405.489 0.937079 405.759 0.812538 406.091 0.729509C406.464 0.60497 406.859 0.542701 407.274 0.542701H428.259C433.697 0.542701 437.703 1.64281 440.277 3.84302C442.892 6.04324 444.2 9.38508 444.2 13.8685V33.2969C444.2 35.5386 443.868 37.5105 443.204 39.2125C442.54 40.8731 441.564 42.2638 440.277 43.3846L432.182 50.1098ZM428.259 46C433.448 46 437.288 44.9622 439.779 42.8865C442.311 40.8108 443.577 37.6143 443.577 33.2969V13.8685C443.577 9.55113 442.311 6.35459 439.779 4.27892C437.288 2.20324 433.448 1.1654 428.259 1.1654H407.274C406.485 1.1654 405.904 1.35221 405.53 1.72584C405.198 2.05794 405.032 2.61838 405.032 3.40713V43.7583C405.032 44.547 405.198 45.1282 405.53 45.5018C405.904 45.8339 406.485 46 407.274 46H428.259ZM411.82 40.3957V6.76973H426.889C429.006 6.76973 430.708 6.99805 431.995 7.4547C433.324 7.91135 434.341 8.53405 435.046 9.32281C435.752 10.0701 436.229 10.9833 436.479 12.0627C436.728 13.1005 436.852 14.2214 436.852 15.4253V31.9269C436.852 33.1308 436.728 34.2517 436.479 35.2895C436.271 36.3274 435.814 37.2199 435.109 37.9671C434.403 38.7144 433.386 39.3163 432.057 39.773C430.729 40.1881 429.006 40.3957 426.889 40.3957H411.82ZM426.889 7.39243H412.442V39.773H426.889C428.882 39.773 430.48 39.5862 431.684 39.2125C432.929 38.7974 433.884 38.2577 434.548 37.5935C435.212 36.8878 435.648 36.0575 435.856 35.1027C436.105 34.1064 436.229 33.0478 436.229 31.9269V15.4253C436.229 14.3044 436.105 13.2458 435.856 12.2495C435.607 11.2532 435.15 10.4022 434.486 9.69643C433.822 8.9907 432.867 8.43027 431.621 8.01513C430.418 7.6 428.84 7.39243 426.889 7.39243ZM419.167 13.059H426.578C427.574 13.059 428.3 13.3081 428.757 13.8063C429.255 14.2629 429.504 15.0102 429.504 16.048V31.1797C429.504 32.2175 429.255 32.9855 428.757 33.4837C428.3 33.9818 427.574 34.2309 426.578 34.2309H419.167V13.059ZM420.849 22.8355C420.849 22.2958 420.766 21.8391 420.6 21.4655C420.434 21.0919 420.164 20.8221 419.79 20.656V33.6082H420.849V22.8355ZM450.782 53.4102C449.786 53.4102 449.059 53.1818 448.603 52.7252C448.146 52.2685 447.918 51.5421 447.918 50.5457V43.2601C447.918 42.7204 447.98 42.2638 448.105 41.8902C448.271 41.5165 448.499 41.2052 448.79 40.9561L455.017 35.7254C452.816 35.0612 451.073 33.9403 449.786 32.3628C448.54 30.7438 447.918 28.4398 447.918 25.4508V18.9124C447.918 17.0443 448.229 15.3838 448.852 13.9308C449.475 12.4778 450.367 11.2532 451.529 10.2569L459.625 3.4694C460.745 2.55611 462.136 1.85038 463.797 1.35222C465.457 0.812539 467.346 0.542701 469.463 0.542701H486.899C487.895 0.542701 488.622 0.771025 489.078 1.22767C489.535 1.68432 489.763 2.41081 489.763 3.40713V10.8173C489.763 11.357 489.68 11.8136 489.514 12.1872C489.39 12.5609 489.182 12.8722 488.892 13.1213L483.287 17.7916C485.903 18.3728 487.999 19.4729 489.577 21.0919C491.196 22.6694 492.005 25.1395 492.005 28.5021V35.0404C492.005 36.9085 491.694 38.5691 491.071 40.0221C490.448 41.475 489.535 42.6997 488.331 43.696L480.298 50.4212C479.136 51.376 477.724 52.1025 476.064 52.6006C474.403 53.1403 472.535 53.4102 470.46 53.4102H450.782ZM478.492 46C482.478 46 485.612 45.0659 487.895 43.1978C490.22 41.2882 491.382 38.5691 491.382 35.0404V28.5021C491.382 25.0149 490.49 22.5241 488.705 21.0296C486.92 19.5351 484.574 18.5803 481.668 18.1652L472.39 16.9198C471.85 16.8783 471.435 16.6707 471.145 16.2971C470.854 15.9235 470.709 15.4668 470.709 14.9271C470.709 14.3875 470.854 13.9516 471.145 13.6195C471.435 13.2458 471.85 13.059 472.39 13.059H486.899C487.688 13.059 488.248 12.893 488.58 12.5609C488.954 12.1872 489.141 11.6061 489.141 10.8173V3.40713C489.141 2.61838 488.954 2.05794 488.58 1.72584C488.248 1.35221 487.688 1.1654 486.899 1.1654H469.463C465.436 1.1654 462.281 2.12021 459.998 4.02984C457.715 5.89794 456.573 8.59632 456.573 12.125V18.6634C456.573 22.1505 457.445 24.6413 459.189 26.1358C460.974 27.6303 463.319 28.5851 466.225 29.0002L475.566 30.3079C476.105 30.3494 476.5 30.5362 476.749 30.8683C477.04 31.2004 477.185 31.7194 477.185 32.4251C477.185 32.9232 477.04 33.3591 476.749 33.7328C476.5 34.0649 476.105 34.2309 475.566 34.2309H458.815C458.026 34.2309 457.445 34.4177 457.072 34.7914C456.739 35.1235 456.573 35.6839 456.573 36.4726V43.7583C456.573 44.547 456.739 45.1282 457.072 45.5018C457.445 45.8339 458.026 46 458.815 46H478.492ZM483.536 6.76973V7.39243H469.712C467.969 7.39243 466.578 7.86984 465.54 8.82465C464.502 9.77946 463.984 10.9834 463.984 12.4363V17.5425C463.984 18.9955 464.274 20.0125 464.855 20.5937C465.436 21.1749 466.204 21.5485 467.159 21.7146L480.298 24.3922C481.544 24.6413 482.561 25.181 483.35 26.0112C484.18 26.8415 484.595 28.336 484.595 30.4947V34.1064C484.595 35.933 483.972 37.4482 482.727 38.6521C481.481 39.8145 479.8 40.3957 477.683 40.3957H462.178V39.773H477.683C479.593 39.773 481.108 39.2541 482.229 38.2162C483.391 37.1369 483.972 35.7669 483.972 34.1064V30.4947C483.972 28.5436 483.619 27.2151 482.914 26.5094C482.249 25.7622 481.336 25.264 480.174 25.0149L467.035 22.3373C465.955 22.1297 465.063 21.7146 464.357 21.0919C463.693 20.4277 463.361 19.2445 463.361 17.5425V12.4363C463.361 10.7758 463.942 9.42659 465.104 8.38875C466.267 7.3094 467.803 6.76973 469.712 6.76973H483.536Z" fill="white"/>
</svg>
